<svg xmlns="http://www.w3.org/2000/svg" width="1024" height="1024" viewBox="0 0 1024 1024">
    <g>
        <path d="M 682.00 665.71 L 682.00 696.00 L 342.92 696.00 L 343.21 663.52 L 343.50 631.03 L 347.26 627.27 L 351.03 623.50 L 375.01 623.20 C388.21,623.03 399.00,622.78 399.00,622.62 C399.00,622.47 397.86,619.01 396.47,614.93 C390.67,597.88 388.08,577.20 389.90,562.34 C394.28,526.55 411.35,496.68 439.55,475.48 C446.84,470.00 464.93,460.66 472.53,458.45 L 478.14 456.82 L 477.58 453.16 C477.27,451.15 476.09,442.08 474.95,433.00 C473.82,423.92 471.79,408.44 470.44,398.59 L 467.98 380.69 L 458.74 366.64 C453.66,358.92 449.65,352.13 449.83,351.55 C450.01,350.97 453.76,344.76 458.16,337.75 L 466.16 325.00 L 558.79 325.00 L 567.36 338.54 L 575.93 352.07 L 565.96 367.11 C559.37,377.05 556.00,383.07 556.00,384.90 C556.00,386.42 554.21,400.54 552.01,416.27 C549.82,432.00 547.91,447.38 547.76,450.43 L 547.50 455.99 L 558.00 460.30 C576.45,467.87 587.75,475.42 600.83,488.93 C613.37,501.87 622.79,517.57 628.77,535.50 C633.65,550.11 634.45,555.30 634.47,572.50 C634.50,591.38 631.92,605.41 625.50,621.25 C624.83,622.89 626.27,623.00 647.64,623.00 C674.22,623.00 675.95,623.43 679.75,630.96 C681.94,635.30 682.00,636.29 682.00,665.71 ZM 545.50 857.12 C528.45,862.54 513.60,866.94 512.50,866.91 C511.40,866.88 508.70,866.19 506.50,865.38 C502.45,863.88 491.11,860.31 418.00,837.55 C353.73,817.54 337.00,811.84 337.00,809.96 C337.00,808.27 344.86,784.78 354.44,757.85 C357.50,749.24 360.00,741.90 360.00,741.53 C360.00,741.17 356.29,741.01 351.75,741.18 L 343.50 741.50 L 343.23 725.25 L 342.95 709.00 L 357.23 708.99 C365.08,708.99 436.43,708.73 515.79,708.42 L 660.08 707.85 L 657.11 712.67 C655.48,715.33 653.84,718.74 653.47,720.26 C652.51,724.12 651.69,724.33 647.08,721.93 C640.83,718.67 635.92,718.38 630.60,720.95 C625.91,723.22 617.04,732.09 614.45,737.10 C611.95,741.93 611.56,748.37 613.43,754.07 C614.35,756.90 614.97,759.33 614.81,759.47 C614.64,759.60 612.40,760.50 609.82,761.46 C607.25,762.43 604.13,764.29 602.90,765.61 C601.66,766.92 600.36,768.00 600.01,768.00 C599.66,768.00 598.32,762.49 597.03,755.75 C593.69,738.28 591.63,735.15 584.27,736.34 C579.76,737.08 576.99,740.34 577.02,744.90 C577.05,748.67 588.29,811.31 589.45,814.12 C590.55,816.79 596.33,819.38 599.44,818.61 C603.14,817.68 606.91,813.72 607.66,809.97 C608.09,807.82 608.71,807.06 609.73,807.45 C610.53,807.76 612.27,808.28 613.59,808.61 C616.52,809.35 616.53,809.55 613.92,815.45 C612.34,819.03 611.93,821.64 612.22,826.33 C612.43,829.72 612.80,833.08 613.05,833.79 C613.53,835.17 601.43,839.35 545.50,857.12 ZM 655.75 430.22 L 645.50 430.50 L 644.50 550.25 L 642.72 541.59 C639.05,523.75 630.67,505.91 619.42,491.99 L 614.00 485.28 L 614.00 460.27 C614.00,436.49 613.90,435.14 611.93,432.63 L 609.85 430.00 L 563.00 430.00 L 562.99 427.75 C562.98,426.51 563.96,417.46 565.17,407.64 L 567.37 389.78 L 573.14 390.44 C580.16,391.23 599.26,395.82 615.50,400.62 C629.10,404.63 639.69,408.79 655.25,416.22 L 666.00 421.36 L 666.00 429.93 ZM 383.24 535.00 C382.05,539.67 380.66,545.30 380.15,547.50 C379.52,550.15 379.17,531.03 379.10,490.75 L 379.00 430.00 L 359.00 430.00 L 359.00 421.30 L 368.75 416.73 C387.13,408.11 405.59,401.64 427.50,396.14 C440.82,392.80 456.11,389.78 456.70,390.36 C456.97,390.64 462.00,427.93 462.00,429.72 C462.00,429.88 451.40,430.00 438.45,430.00 L 414.90 430.00 L 412.45 432.65 L 410.00 435.29 L 410.00 485.19 L 403.78 493.81 C395.40,505.41 385.92,524.43 383.24,535.00 ZM 507.24 609.84 C513.78,610.97 522.52,609.37 529.19,605.82 C535.79,602.30 540.81,597.07 544.84,589.50 C547.23,585.00 547.50,583.45 547.50,574.00 C547.50,563.96 547.35,563.23 544.10,557.23 C540.03,549.73 534.73,544.70 527.12,541.14 C522.26,538.85 520.22,538.50 512.00,538.54 C503.57,538.57 501.89,538.89 497.08,541.39 C489.23,545.47 481.80,553.32 478.96,560.53 C470.52,581.96 484.22,605.85 507.24,609.84 ZM 544.05 832.73 C547.48,834.47 550.00,834.29 553.65,832.07 C558.78,828.95 559.38,825.37 557.53,808.80 C549.78,738.99 549.65,738.23 545.46,736.62 C539.58,734.37 532.02,738.88 531.98,744.67 C531.98,746.23 533.37,765.05 535.09,786.50 C538.41,828.05 538.80,830.07 544.05,832.73 ZM 471.76 832.43 C475.83,834.64 478.62,834.32 482.02,831.25 C485.71,827.94 486.09,825.80 489.02,792.00 L 489.28 789.04 C492.79,748.55 493.31,742.63 490.59,739.51 C490.06,738.90 489.41,738.40 488.63,737.77 C484.45,734.39 476.14,736.76 474.59,741.78 C474.09,743.38 469.51,786.42 466.98,813.18 C465.74,826.32 466.56,829.61 471.76,832.43 ZM 422.34 817.07 C424.08,818.13 426.08,818.99 426.80,819.00 C429.67,819.00 434.23,815.69 435.48,812.68 C437.41,808.02 448.00,750.12 448.00,744.20 C448.00,740.14 443.95,736.00 439.98,736.00 C435.79,736.00 433.33,737.46 431.46,741.08 C429.91,744.08 418.07,801.77 417.83,807.50 C417.63,812.23 418.93,814.99 422.34,817.07 ZM 373.92 801.08 C376.84,803.99 381.46,804.91 385.46,803.38 C388.53,802.20 392.08,792.43 399.94,763.58 C404.39,747.23 404.72,744.29 402.54,740.07 C400.91,736.92 399.20,736.00 395.00,736.00 C390.82,736.00 389.09,736.92 387.49,740.01 C384.66,745.50 371.00,791.39 371.00,795.44 C371.00,797.11 372.13,799.28 373.92,801.08 Z" fill="rgb(42,79,113)"/>
        <path d="M 683.87 853.07 C675.29,854.73 666.83,853.44 665.14,850.23 C664.64,849.28 663.93,846.24 663.55,843.48 C662.88,838.51 662.81,838.43 657.41,836.23 C650.44,833.38 649.99,833.41 644.15,837.00 C641.47,838.65 638.58,840.00 637.73,840.00 C635.47,840.00 626.21,832.39 623.96,828.69 C621.71,824.99 622.06,823.10 626.09,817.34 C629.57,812.36 629.63,811.34 626.87,804.92 C625.28,801.22 624.08,799.83 622.12,799.39 C609.11,796.47 609.00,796.35 609.00,785.12 C609.00,779.71 609.48,775.73 610.25,774.68 C610.99,773.66 613.90,772.58 617.43,772.01 C620.69,771.48 623.66,770.70 624.03,770.27 C624.41,769.85 625.76,766.91 627.04,763.74 L 629.38 757.98 L 627.17 755.24 C625.96,753.73 624.24,751.07 623.34,749.32 C621.12,745.02 622.60,741.62 629.54,735.05 C636.11,728.83 638.59,728.60 644.72,733.63 L 649.15 737.26 L 656.01 734.57 C663.33,731.69 662.95,732.22 664.58,722.73 C665.50,717.40 668.01,716.00 676.66,716.00 C686.32,716.00 688.64,716.99 689.94,721.70 C690.52,723.79 691.10,726.81 691.24,728.41 C691.47,730.99 692.25,731.62 698.26,734.05 L 705.02 736.78 L 709.26 733.91 C715.75,729.51 718.11,729.98 725.59,737.16 C729.71,741.12 732.00,744.11 732.00,745.55 C732.00,746.77 730.40,750.11 728.44,752.95 L 724.88 758.13 L 729.60 770.50 L 736.02 771.50 C741.34,772.33 742.66,772.93 743.71,775.00 C745.37,778.29 745.40,793.07 743.75,795.32 C743.00,796.34 740.09,797.42 736.50,798.00 C729.77,799.09 729.10,799.71 726.56,807.20 L 724.75 812.53 L 727.75 817.01 C733.06,824.96 733.01,825.43 725.92,832.58 C717.91,840.66 715.38,841.33 709.27,836.95 L 704.74 833.69 L 698.00 835.86 L 691.25 838.03 L 690.60 843.77 C689.75,851.18 689.12,852.05 683.87,853.07 ZM 365.16 199.73 C358.01,204.10 349.06,202.06 343.73,194.86 C341.57,191.94 340.39,184.57 341.42,180.45 C343.55,171.99 375.40,147.18 400.92,134.10 C446.82,110.58 503.17,102.03 553.00,111.02 C598.78,119.29 637.47,137.61 672.28,167.52 C681.59,175.51 684.42,180.31 683.77,187.02 C683.22,192.79 680.73,196.36 675.43,198.99 C667.38,202.98 659.89,200.98 649.97,192.19 C632.60,176.79 605.52,160.94 582.50,152.68 C533.92,135.26 484.38,135.92 435.74,154.64 C415.26,162.52 393.13,175.86 377.66,189.63 C372.80,193.96 367.18,198.51 365.16,199.73 ZM 412.50 250.49 C405.32,255.09 393.81,251.26 389.40,242.80 C387.41,238.97 387.63,231.08 389.81,227.77 C393.46,222.24 410.17,208.54 421.50,201.79 C445.30,187.62 470.08,179.78 500.16,176.90 C532.83,173.77 573.56,184.00 604.00,202.96 C613.35,208.78 629.88,221.76 633.01,225.74 C640.28,234.98 635.49,248.91 623.98,252.01 C617.66,253.71 613.51,252.13 604.73,244.66 C590.00,232.15 571.75,221.90 554.00,216.19 C543.12,212.68 537.52,211.54 523.50,209.94 C489.57,206.09 448.43,219.60 420.85,243.67 C417.36,246.72 413.60,249.79 412.50,250.49 ZM 458.35 301.49 C446.34,307.25 432.26,294.63 435.89,281.36 C438.34,272.39 457.64,258.51 476.46,252.20 C490.05,247.63 499.25,246.00 511.34,246.01 C528.78,246.02 543.98,249.59 560.50,257.56 C570.57,262.42 583.26,271.78 586.72,276.91 C589.89,281.62 589.91,290.37 586.75,295.01 C582.90,300.67 579.55,302.50 573.13,302.47 C567.25,302.44 564.06,300.91 558.00,295.21 C547.09,284.94 530.04,279.00 511.49,279.00 C494.97,279.00 479.63,284.43 468.00,294.40 C464.42,297.47 460.08,300.65 458.35,301.49 ZM 666.75 813.57 C671.99,815.44 682.70,815.32 688.57,813.33 C695.03,811.13 703.14,802.96 705.38,796.40 C709.18,785.24 706.40,771.75 698.76,764.27 C683.00,748.84 657.65,754.27 650.01,774.71 C647.84,780.50 647.43,788.39 648.99,794.03 C651.33,802.46 658.88,810.77 666.75,813.57 Z" fill="rgb(112,164,190)"/>
        <!-- <path d="M 0.00 512.00 L 0.00 0.00 L 512.00 0.00 L 1024.00 0.00 L 1024.00 512.00 L 1024.00 1024.00 L 512.00 1024.00 L 0.00 1024.00 L 0.00 512.00 ZM 545.50 857.12 C601.43,839.35 613.53,835.17 613.05,833.79 C612.80,833.08 612.43,829.72 612.22,826.33 C611.93,821.64 612.34,819.03 613.92,815.45 C616.53,809.55 616.52,809.35 613.59,808.61 C612.27,808.28 610.53,807.76 609.73,807.45 C608.71,807.06 608.09,807.82 607.66,809.97 C606.91,813.72 603.14,817.68 599.44,818.61 C596.33,819.38 590.55,816.79 589.45,814.12 C588.29,811.31 577.05,748.67 577.02,744.90 C576.99,740.34 579.76,737.08 584.27,736.34 C591.63,735.15 593.69,738.28 597.03,755.75 C598.32,762.49 599.66,768.00 600.01,768.00 C600.36,768.00 601.66,766.92 602.90,765.61 C604.13,764.29 607.25,762.43 609.82,761.46 C612.40,760.50 614.64,759.60 614.81,759.47 C614.97,759.33 614.35,756.90 613.43,754.07 C611.56,748.37 611.95,741.93 614.45,737.10 C617.04,732.09 625.91,723.22 630.60,720.95 C635.92,718.38 640.83,718.67 647.08,721.93 C651.69,724.33 652.51,724.12 653.47,720.26 C653.84,718.74 655.48,715.33 657.11,712.67 L 660.08 707.85 L 515.79 708.42 C436.43,708.73 365.08,708.99 357.23,708.99 L 342.95 709.00 L 343.23 725.25 L 343.50 741.50 L 351.75 741.18 C356.29,741.01 360.00,741.17 360.00,741.53 C360.00,741.90 357.50,749.24 354.44,757.85 C344.86,784.78 337.00,808.27 337.00,809.96 C337.00,811.84 353.73,817.54 418.00,837.55 C491.11,860.31 502.45,863.88 506.50,865.38 C508.70,866.19 511.40,866.88 512.50,866.91 C513.60,866.94 528.45,862.54 545.50,857.12 ZM 683.87 853.07 C689.12,852.05 689.75,851.18 690.60,843.77 L 691.25 838.03 L 698.00 835.86 L 704.74 833.69 L 709.27 836.95 C715.38,841.33 717.91,840.66 725.92,832.58 C733.01,825.43 733.06,824.96 727.75,817.01 L 724.75 812.53 L 726.56 807.20 C729.10,799.71 729.77,799.09 736.50,798.00 C740.09,797.42 743.00,796.34 743.75,795.32 C745.40,793.07 745.37,778.29 743.71,775.00 C742.66,772.93 741.34,772.33 736.02,771.50 L 729.60 770.50 L 727.24 764.32 L 724.88 758.13 L 728.44 752.95 C730.40,750.11 732.00,746.77 732.00,745.55 C732.00,744.11 729.71,741.12 725.59,737.16 C718.11,729.98 715.75,729.51 709.26,733.91 L 705.02 736.78 L 698.26 734.05 C692.25,731.62 691.47,730.99 691.24,728.41 C691.10,726.81 690.52,723.79 689.94,721.70 C688.64,716.99 686.32,716.00 676.66,716.00 C668.01,716.00 665.50,717.40 664.58,722.73 C662.95,732.22 663.33,731.69 656.01,734.57 L 649.15 737.26 L 644.72 733.63 C638.59,728.60 636.11,728.83 629.54,735.05 C622.60,741.62 621.12,745.02 623.34,749.32 C624.24,751.07 625.96,753.73 627.17,755.24 L 629.38 757.98 L 627.04 763.74 C625.76,766.91 624.41,769.85 624.03,770.27 C623.66,770.70 620.69,771.48 617.43,772.01 C613.90,772.58 610.99,773.66 610.25,774.68 C609.48,775.73 609.00,779.71 609.00,785.12 C609.00,796.35 609.11,796.47 622.12,799.39 C624.08,799.83 625.28,801.22 626.87,804.92 C629.63,811.34 629.57,812.36 626.09,817.34 C622.06,823.10 621.71,824.99 623.96,828.69 C626.21,832.39 635.47,840.00 637.73,840.00 C638.58,840.00 641.47,838.65 644.15,837.00 C649.99,833.41 650.44,833.38 657.41,836.23 C662.81,838.43 662.88,838.51 663.55,843.48 C663.93,846.24 664.64,849.28 665.14,850.23 C666.83,853.44 675.29,854.73 683.87,853.07 ZM 682.00 665.71 C682.00,636.29 681.94,635.30 679.75,630.96 C675.95,623.43 674.22,623.00 647.64,623.00 C626.27,623.00 624.83,622.89 625.50,621.25 C631.92,605.41 634.50,591.38 634.47,572.50 C634.45,555.30 633.65,550.11 628.77,535.50 C622.79,517.57 613.37,501.87 600.83,488.93 C587.75,475.42 576.45,467.87 558.00,460.30 L 547.50 455.99 L 547.76 450.43 C547.91,447.38 549.82,432.00 552.01,416.27 C554.21,400.54 556.00,386.42 556.00,384.90 C556.00,383.07 559.37,377.05 565.96,367.11 L 575.93 352.07 L 567.36 338.54 L 558.79 325.00 L 512.48 325.00 L 466.16 325.00 L 458.16 337.75 C453.76,344.76 450.01,350.97 449.83,351.55 C449.65,352.13 453.66,358.92 458.74,366.64 L 467.98 380.69 L 470.44 398.59 C471.79,408.44 473.82,423.92 474.95,433.00 C476.09,442.08 477.27,451.15 477.58,453.16 L 478.14 456.82 L 472.53 458.45 C464.93,460.66 446.84,470.00 439.55,475.48 C411.35,496.68 394.28,526.55 389.90,562.34 C388.08,577.20 390.67,597.88 396.47,614.93 C397.86,619.01 399.00,622.47 399.00,622.62 C399.00,622.78 388.21,623.03 375.01,623.20 L 351.03 623.50 L 347.26 627.27 L 343.50 631.03 L 343.21 663.52 L 342.92 696.00 L 512.46 696.00 L 682.00 696.00 L 682.00 665.71 ZM 383.24 535.00 C385.92,524.43 395.40,505.41 403.78,493.81 L 410.00 485.19 L 410.00 460.24 L 410.00 435.29 L 412.45 432.65 L 414.90 430.00 L 438.45 430.00 C451.40,430.00 462.00,429.88 462.00,429.72 C462.00,427.93 456.97,390.64 456.70,390.36 C456.11,389.78 440.82,392.80 427.50,396.14 C405.59,401.64 387.13,408.11 368.75,416.73 L 359.00 421.30 L 359.00 425.65 L 359.00 430.00 L 369.00 430.00 L 379.00 430.00 L 379.10 490.75 C379.17,531.03 379.52,550.15 380.15,547.50 C380.66,545.30 382.05,539.67 383.24,535.00 ZM 655.75 430.22 L 666.00 429.93 L 666.00 425.64 L 666.00 421.36 L 655.25 416.22 C639.69,408.79 629.10,404.63 615.50,400.62 C599.26,395.82 580.16,391.23 573.14,390.44 L 567.37 389.78 L 565.17 407.64 C563.96,417.46 562.98,426.51 562.99,427.75 L 563.00 430.00 L 586.43 430.00 L 609.85 430.00 L 611.93 432.63 C613.90,435.14 614.00,436.49 614.00,460.27 L 614.00 485.28 L 619.42 491.99 C630.67,505.91 639.05,523.75 642.72,541.59 L 644.50 550.25 L 645.00 490.37 L 645.50 430.50 L 655.75 430.22 ZM 458.35 301.49 C460.08,300.65 464.42,297.47 468.00,294.40 C479.63,284.43 494.97,279.00 511.49,279.00 C530.04,279.00 547.09,284.94 558.00,295.21 C564.06,300.91 567.25,302.44 573.13,302.47 C579.55,302.50 582.90,300.67 586.75,295.01 C589.91,290.37 589.89,281.62 586.72,276.91 C583.26,271.78 570.57,262.42 560.50,257.56 C543.98,249.59 528.78,246.02 511.34,246.01 C499.25,246.00 490.05,247.63 476.46,252.20 C457.64,258.51 438.34,272.39 435.89,281.36 C432.26,294.63 446.34,307.25 458.35,301.49 ZM 412.50 250.49 C413.60,249.79 417.36,246.72 420.85,243.67 C448.43,219.60 489.57,206.09 523.50,209.94 C537.52,211.54 543.12,212.68 554.00,216.19 C571.75,221.90 590.00,232.15 604.73,244.66 C613.51,252.13 617.66,253.71 623.98,252.01 C635.49,248.91 640.28,234.98 633.01,225.74 C629.88,221.76 613.35,208.78 604.00,202.96 C573.56,184.00 532.83,173.77 500.16,176.90 C470.08,179.78 445.30,187.62 421.50,201.79 C410.17,208.54 393.46,222.24 389.81,227.77 C387.63,231.08 387.41,238.97 389.40,242.80 C393.81,251.26 405.32,255.09 412.50,250.49 ZM 365.16 199.73 C367.18,198.51 372.80,193.96 377.66,189.63 C393.13,175.86 415.26,162.52 435.74,154.64 C484.38,135.92 533.92,135.26 582.50,152.68 C605.52,160.94 632.60,176.79 649.97,192.19 C659.89,200.98 667.38,202.98 675.43,198.99 C680.73,196.36 683.22,192.79 683.77,187.02 C684.42,180.31 681.59,175.51 672.28,167.52 C637.47,137.61 598.78,119.29 553.00,111.02 C503.17,102.03 446.82,110.58 400.92,134.10 C375.40,147.18 343.55,171.99 341.42,180.45 C340.39,184.57 341.57,191.94 343.73,194.86 C349.06,202.06 358.01,204.10 365.16,199.73 ZM 471.76 832.43 C466.56,829.61 465.74,826.32 466.98,813.18 C469.51,786.42 474.09,743.38 474.59,741.78 C476.14,736.76 484.45,734.39 488.63,737.77 C493.49,741.71 493.48,740.60 489.02,792.00 C486.09,825.80 485.71,827.94 482.02,831.25 C478.62,834.32 475.83,834.64 471.76,832.43 ZM 544.05 832.73 C538.80,830.07 538.41,828.05 535.09,786.50 C533.37,765.05 531.98,746.23 531.98,744.67 C532.02,738.88 539.58,734.37 545.46,736.62 C549.65,738.23 549.78,738.99 557.53,808.80 C559.38,825.37 558.78,828.95 553.65,832.07 C550.00,834.29 547.48,834.47 544.05,832.73 ZM 422.34 817.07 C418.93,814.99 417.63,812.23 417.83,807.50 C418.07,801.77 429.91,744.08 431.46,741.08 C433.33,737.46 435.79,736.00 439.98,736.00 C443.95,736.00 448.00,740.14 448.00,744.20 C448.00,750.12 437.41,808.02 435.48,812.68 C434.23,815.69 429.67,819.00 426.80,819.00 C426.08,818.99 424.08,818.13 422.34,817.07 ZM 373.92 801.08 C372.13,799.28 371.00,797.11 371.00,795.44 C371.00,791.39 384.66,745.50 387.49,740.01 C389.09,736.92 390.82,736.00 395.00,736.00 C399.20,736.00 400.91,736.92 402.54,740.07 C404.72,744.29 404.39,747.23 399.94,763.58 C392.08,792.43 388.53,802.20 385.46,803.38 C381.46,804.91 376.84,803.99 373.92,801.08 ZM 666.75 813.57 C658.88,810.77 651.33,802.46 648.99,794.03 C647.43,788.39 647.84,780.50 650.01,774.71 C657.65,754.27 683.00,748.84 698.76,764.27 C706.40,771.75 709.18,785.24 705.38,796.40 C703.14,802.96 695.03,811.13 688.57,813.33 C682.70,815.32 671.99,815.44 666.75,813.57 ZM 507.24 609.84 C484.22,605.85 470.52,581.96 478.96,560.53 C481.80,553.32 489.23,545.47 497.08,541.39 C501.89,538.89 503.57,538.57 512.00,538.54 C520.22,538.50 522.26,538.85 527.12,541.14 C534.73,544.70 540.03,549.73 544.10,557.23 C547.35,563.23 547.50,563.96 547.50,574.00 C547.50,583.45 547.23,585.00 544.84,589.50 C540.81,597.07 535.79,602.30 529.19,605.82 C522.52,609.37 513.78,610.97 507.24,609.84 Z" fill="rgb(253,253,253)"/> -->
    </g>
</svg>
